<svg width="24" height="24" viewBox="0 0 24 24" fill="none" xmlns="http://www.w3.org/2000/svg">
<g clip-path="url(#clip0_0_30)">
<path d="M23.1333 5.54998L20.3493 15.2501H7.68113C7.66462 15.2501 7.64818 15.2503 7.6318 15.2509L7.71054 15.2168L7.57541 14.6115L5.55266 5.54998H6.05785H23.1333ZM9.08756 22.25C8.33529 22.25 7.72801 21.6406 7.72801 20.9C7.72801 20.1595 8.33532 19.55 9.08756 19.55C9.83958 19.55 10.4469 20.1595 10.4469 20.9C10.4469 21.6407 9.83961 22.25 9.08756 22.25ZM18.9782 22.25C18.2261 22.25 17.6188 21.6407 17.6188 20.9C17.6188 20.1595 18.2261 19.55 18.9782 19.55C19.7303 19.55 20.3375 20.1594 20.3375 20.9C20.3375 21.6407 19.7304 22.25 18.9782 22.25Z" stroke="#B0B0B0" stroke-width="1.5"/>
</g>
<defs>
<clipPath id="clip0_0_30">
<rect width="24" height="24" fill="white"/>
</clipPath>
</defs>
</svg>
