<svg width="24" height="24" viewBox="0 0 24 24" fill="none" xmlns="http://www.w3.org/2000/svg">
<path d="M11.9063 14.625C12.6025 14.625 13.2701 14.3484 13.7624 13.8561C14.2547 13.3639 14.5313 12.6962 14.5313 12C14.5313 11.9231 14.5277 11.8469 14.5212 11.7717L11.678 14.6149C11.7532 14.6215 11.8292 14.625 11.9063 14.625ZM20.595 3.88031L19.5938 2.87999C19.5586 2.84486 19.5109 2.82512 19.4612 2.82512C19.4115 2.82512 19.3638 2.84486 19.3287 2.87999L16.7665 5.44288C15.3531 4.72054 13.7642 4.35937 12 4.35937C7.49533 4.35937 4.13439 6.70546 1.9172 11.3976C1.82808 11.5864 1.78186 11.7925 1.78186 12.0012C1.78186 12.2099 1.82808 12.416 1.9172 12.6047C2.80314 14.4708 3.86994 15.9665 5.11759 17.0918L2.63814 19.5703C2.603 19.6055 2.58326 19.6531 2.58326 19.7028C2.58326 19.7526 2.603 19.8002 2.63814 19.8354L3.63869 20.8359C3.67384 20.8711 3.72152 20.8908 3.77122 20.8908C3.82093 20.8908 3.8686 20.8711 3.90376 20.8359L20.595 4.14562C20.6124 4.1282 20.6263 4.10753 20.6357 4.08476C20.6451 4.062 20.65 4.0376 20.65 4.01296C20.65 3.98832 20.6451 3.96392 20.6357 3.94116C20.6263 3.9184 20.6124 3.89772 20.595 3.88031ZM7.78126 12C7.7812 11.2875 7.96568 10.5872 8.31673 9.96715C8.66779 9.34716 9.17345 8.82866 9.78445 8.46217C10.3955 8.09568 11.091 7.8937 11.8032 7.8759C12.5155 7.85811 13.2202 8.0251 13.8488 8.36062L12.7092 9.50015C12.2497 9.353 11.7585 9.33528 11.2895 9.44893C10.8205 9.56258 10.3919 9.80321 10.0507 10.1444C9.70948 10.4856 9.46885 10.9142 9.3552 11.3832C9.24155 11.8522 9.25927 12.3434 9.40642 12.803L8.26689 13.9425C7.94711 13.345 7.78027 12.6777 7.78126 12Z" fill="#B0B0B0"/>
<path d="M22.0828 11.3953C21.2578 9.65782 20.2759 8.24102 19.1369 7.14493L15.7587 10.5234C16.0434 11.2679 16.1066 12.0788 15.9404 12.8583C15.7742 13.6378 15.3859 14.3525 14.8223 14.9161C14.2588 15.4797 13.544 15.868 12.7645 16.0342C11.985 16.2003 11.1741 16.1372 10.4297 15.8524L7.56421 18.7179C8.89358 19.3331 10.3722 19.6406 12 19.6406C16.5047 19.6406 19.8656 17.2945 22.0828 12.6024C22.1719 12.4136 22.2182 12.2075 22.2182 11.9988C22.2182 11.7901 22.1719 11.584 22.0828 11.3953Z" fill="#B0B0B0"/>
</svg>
