<svg width="24" height="24" viewBox="0 0 24 24" fill="none" xmlns="http://www.w3.org/2000/svg">
<g clip-path="url(#clip0_0_12)">
<path d="M23.1334 5.54998L20.3494 15.2501H7.68125C7.66475 15.2501 7.6483 15.2503 7.63192 15.2509L7.71066 15.2168L7.57554 14.6115L5.55278 5.54998H6.05798H23.1334ZM9.08768 22.25C8.33541 22.25 7.72813 21.6406 7.72813 20.9C7.72813 20.1595 8.33544 19.55 9.08768 19.55C9.8397 19.55 10.4471 20.1595 10.4471 20.9C10.4471 21.6407 9.83973 22.25 9.08768 22.25ZM18.9783 22.25C18.2262 22.25 17.6189 21.6407 17.6189 20.9C17.6189 20.1595 18.2262 19.55 18.9783 19.55C19.7304 19.55 20.3377 20.1594 20.3377 20.9C20.3377 21.6407 19.7305 22.25 18.9783 22.25Z" stroke="black" stroke-width="1.5"/>
</g>
<defs>
<clipPath id="clip0_0_12">
<rect width="24" height="24" fill="white"/>
</clipPath>
</defs>
</svg>
