<svg width="24" height="24" viewBox="0 0 24 24" fill="none" xmlns="http://www.w3.org/2000/svg">
<path d="M7.25941 7.5H7.99991H8.03845H8.74991H15.2499H15.9999H16.7499H18.0689C18.0689 7.5 18.0689 7.5 18.0689 7.5C18.3218 7.50002 18.5653 7.59584 18.7503 7.76819C18.9354 7.94053 19.0483 8.1766 19.0663 8.42886L19.0663 8.42893L19.9233 20.4284C19.933 20.5654 19.9144 20.7029 19.8686 20.8324C19.8229 20.9619 19.7509 21.0806 19.6573 21.1812C19.5637 21.2817 19.4505 21.3619 19.3245 21.4167C19.1986 21.4716 19.0628 21.4999 18.9254 21.5H5.07394C5.07393 21.5 5.07392 21.5 5.07391 21.5C4.9366 21.5 4.80077 21.4717 4.67488 21.4169C4.54898 21.3621 4.43571 21.282 4.34214 21.1815C4.24856 21.081 4.17668 20.9623 4.13098 20.8328C4.08529 20.7034 4.06675 20.5659 4.0765 20.4289C4.07651 20.4289 4.07651 20.4289 4.07651 20.4289L4.9335 8.42893L4.93351 8.42886C4.9515 8.1766 5.0644 7.94053 5.24947 7.76819C5.43454 7.59584 5.67802 7.50002 5.93091 7.5C5.93092 7.5 5.93093 7.5 5.93094 7.5H7.25941ZM9.17148 3.67157C8.42455 4.4185 8.00353 5.43042 7.99993 6.48636L7.99937 6.47152L7.99926 6.46892C7.90601 4.22016 9.83388 2.5 11.9999 2.5C10.939 2.5 9.92163 2.92143 9.17148 3.67157Z" stroke="#B0B0B0" stroke-width="1.5"/>
</svg>
