<svg width="81" height="25" viewBox="0 0 81 25" fill="none" xmlns="http://www.w3.org/2000/svg">
<path d="M0 24.2295V0.384086H4.35298V10.7864H14.4993V0.384086H18.8843V24.2295H14.4993V14.6273H4.35298V24.2295H0Z" fill="#FDFDFD"/>
<path d="M23.282 24.2295V6.81754H27.475V24.2295H23.282ZM23.282 4.8651V0.384086H27.475V4.8651H23.282Z" fill="#FDFDFD"/>
<path d="M31.5064 24.2295V6.81754H35.4433V10.6904L35.1232 10.1143C35.5286 8.81266 36.1581 7.90579 37.0116 7.39367C37.8865 6.88156 38.9321 6.6255 40.1483 6.6255H41.1726V10.3383H39.6682C38.4733 10.3383 37.5131 10.7118 36.7876 11.4586C36.0621 12.1841 35.6993 13.2083 35.6993 14.5313V24.2295H31.5064Z" fill="#FDFDFD"/>
<path d="M51.8957 24.6136C50.1033 24.6136 48.535 24.2081 47.1907 23.3973C45.8464 22.5864 44.8008 21.4875 44.054 20.1005C43.3071 18.7136 42.9337 17.1772 42.9337 15.4915C42.9337 13.7418 43.3071 12.1948 44.054 10.8505C44.8221 9.48481 45.857 8.40723 47.1587 7.61772C48.4816 6.82821 49.954 6.43345 51.5757 6.43345C52.9413 6.43345 54.1362 6.6575 55.1605 7.10561C56.206 7.55371 57.0916 8.17252 57.8171 8.96203C58.5426 9.75154 59.0974 10.6584 59.4814 11.6826C59.8655 12.6855 60.0576 13.7738 60.0576 14.9474C60.0576 15.2461 60.0362 15.5555 59.9936 15.8756C59.9722 16.1957 59.9189 16.4731 59.8335 16.7078H46.3905V13.5071H57.465L55.4805 15.0114C55.6726 14.0298 55.6192 13.155 55.3205 12.3868C55.0431 11.6186 54.5737 11.0105 53.9122 10.5624C53.272 10.1143 52.4932 9.89024 51.5757 9.89024C50.7008 9.89024 49.922 10.1143 49.2391 10.5624C48.5563 10.9892 48.0335 11.6293 47.6708 12.4828C47.3294 13.315 47.2013 14.3286 47.2867 15.5235C47.2013 16.5904 47.34 17.54 47.7028 18.3722C48.0869 19.183 48.6417 19.8125 49.3672 20.2606C50.114 20.7087 50.9675 20.9327 51.9277 20.9327C52.888 20.9327 53.6988 20.73 54.3603 20.3246C55.0431 19.9192 55.5766 19.375 55.9606 18.6922L59.3534 20.3566C59.012 21.1888 58.4786 21.925 57.7531 22.5651C57.0276 23.2052 56.1634 23.7067 55.1605 24.0694C54.1789 24.4322 53.0907 24.6136 51.8957 24.6136Z" fill="#FDFDFD"/>
<path d="M71.4939 24.6136C69.8082 24.6136 68.3039 24.2188 66.9809 23.4293C65.6579 22.6184 64.6124 21.5195 63.8442 20.1326C63.076 18.7456 62.6919 17.2092 62.6919 15.5235C62.6919 13.8165 63.076 12.2801 63.8442 10.9145C64.6124 9.54883 65.6579 8.46058 66.9809 7.64973C68.3252 6.83888 69.8189 6.43345 71.4619 6.43345C72.7849 6.43345 73.9585 6.70018 74.9827 7.23364C76.0283 7.74575 76.8498 8.47125 77.4473 9.41013L76.8071 10.2743V0H81.0001V24.2295H77.0312V20.8687L77.4793 21.7009C76.8818 22.6398 76.0496 23.3653 74.9827 23.8774C73.9158 24.3682 72.7529 24.6136 71.4939 24.6136ZM71.942 20.7727C72.9022 20.7727 73.7451 20.5486 74.4706 20.1005C75.1961 19.6524 75.7615 19.0336 76.167 18.2441C76.5937 17.4546 76.8071 16.5477 76.8071 15.5235C76.8071 14.5206 76.5937 13.6244 76.167 12.8349C75.7615 12.0241 75.1961 11.3946 74.4706 10.9465C73.7451 10.4984 72.9022 10.2743 71.942 10.2743C71.0031 10.2743 70.1603 10.509 69.4134 10.9785C68.6666 11.4266 68.0798 12.0454 67.653 12.8349C67.2476 13.6031 67.0449 14.4993 67.0449 15.5235C67.0449 16.5477 67.2476 17.4546 67.653 18.2441C68.0798 19.0336 68.6666 19.6524 69.4134 20.1005C70.1603 20.5486 71.0031 20.7727 71.942 20.7727Z" fill="#FDFDFD"/>
</svg>
