<svg width="24" height="24" viewBox="0 0 24 24" fill="none" xmlns="http://www.w3.org/2000/svg">
<path d="M3.57287 13.2632L3.57363 13.2639L11.338 20.9697C11.5241 21.1543 11.7613 21.25 12 21.25C12.2387 21.25 12.4759 21.1543 12.662 20.9697L20.4264 13.2639L20.4271 13.2632C21.5853 12.117 22.25 10.498 22.25 8.79454V8.52961C22.25 5.66755 20.3096 3.28379 17.7387 2.82753L3.57287 13.2632ZM3.57287 13.2632C2.41465 12.117 1.75 10.498 1.75 8.79454V8.52961C1.75 5.66755 3.69039 3.28379 6.26131 2.82753L3.57287 13.2632ZM12 5.55432L11.4537 4.97359L10.9381 4.42546C9.70441 3.114 7.96273 2.52615 6.2615 2.8275L12 5.55432ZM12 5.55432L12.5463 4.97359M12 5.55432L12.5463 4.97359M12.5463 4.97359L13.0619 4.42546C14.2956 3.114 16.0373 2.52615 17.7385 2.8275L12.5463 4.97359Z" stroke="#B0B0B0" stroke-width="1.5"/>
</svg>
