<svg width="102" height="102" viewBox="0 0 102 102" fill="none" xmlns="http://www.w3.org/2000/svg">
<path d="M47.7699 45.8716C57.8785 45.8716 66.0732 37.6769 66.0732 27.5682C66.0732 17.4596 57.8785 9.26489 47.7699 9.26489C37.6612 9.26489 29.4666 17.4596 29.4666 27.5682C29.4666 37.6769 37.6612 45.8716 47.7699 45.8716Z" fill="white"/>
<path d="M59.5 79.3333H79.3333V83.2999H59.5V79.3333Z" fill="white"/>
<path d="M42.4999 84.9999V93.4999C42.4999 94.2514 42.7985 94.9721 43.3298 95.5034C43.8612 96.0348 44.5818 96.3333 45.3333 96.3333H93.4999C94.2514 96.3333 94.9721 96.0348 95.5034 95.5034C96.0348 94.9721 96.3333 94.2514 96.3333 93.4999V65.1666C96.3333 64.4152 96.0348 63.6945 95.5034 63.1631C94.9721 62.6318 94.2514 62.3333 93.4999 62.3333H73.6666V58.1683C73.6666 57.4168 73.3681 56.6962 72.8368 56.1648C72.3054 55.6334 71.5847 55.3349 70.8333 55.3349C70.0818 55.3349 69.3612 55.6334 68.8298 56.1648C68.2985 56.6962 67.9999 57.4168 67.9999 58.1683V62.3333H62.3333V52.1899C57.5186 51.4036 52.6484 51.0056 47.7699 50.9999C37.0112 50.9542 26.373 53.2656 16.6033 57.7716C14.9953 58.5304 13.6388 59.7346 12.6946 61.2412C11.7505 62.7478 11.2583 64.4937 11.2766 66.2716V84.9999H42.4999ZM90.6666 90.6666H48.1666V67.9999H67.9999V69.1899C67.9999 69.9414 68.2985 70.6621 68.8298 71.1934C69.3612 71.7248 70.0818 72.0233 70.8333 72.0233C71.5847 72.0233 72.3054 71.7248 72.8368 71.1934C73.3681 70.6621 73.6666 69.9414 73.6666 69.1899V67.9999H90.6666V90.6666Z" fill="white"/>
</svg>
